<?xml version="1.0" encoding="utf-8"?>
<!-- Generator: Adobe Illustrator 25.2.1, SVG Export Plug-In . SVG Version: 6.00 Build 0)  -->
<svg version="1.0" id="Calque_1" focusable="false" xmlns="http://www.w3.org/2000/svg" xmlns:xlink="http://www.w3.org/1999/xlink"
	 x="0px" y="0px" viewBox="0 0 576 512" style="enable-background:new 0 0 576 512;" xml:space="preserve">
<path d="M563,222.9v15.3c0,12.7-10.3,22.9-22.9,22.9h-7.6l-24.9,174.5c-3.2,22.6-22.6,39.4-45.4,39.4H113.9
	c-22.8,0-42.1-16.8-45.4-39.4L43.6,261.1H36c-12.7,0-22.9-10.3-22.9-22.9v-15.3c0-12.7,10.3-22.9,22.9-22.9h64.3l102-140.2
	c9.9-13.6,29-16.7,42.7-6.7c13.6,9.9,16.7,29,6.7,42.7L175.8,200h224.4L324.4,95.7c-9.9-13.6-6.9-32.8,6.7-42.7s32.8-6.9,42.7,6.7
	l102,140.2h64.3C552.7,200,563,210.3,563,222.9z M310.9,391V284c0-12.7-10.3-22.9-22.9-22.9s-22.9,10.3-22.9,22.9v107
	c0,12.7,10.3,22.9,22.9,22.9S310.9,403.6,310.9,391z M417.9,391V284c0-12.7-10.3-22.9-22.9-22.9c-12.7,0-22.9,10.3-22.9,22.9v107
	c0,12.7,10.3,22.9,22.9,22.9S417.9,403.6,417.9,391z M204,391V284c0-12.7-10.3-22.9-22.9-22.9s-22.9,10.3-22.9,22.9v107
	c0,12.7,10.3,22.9,22.9,22.9S204,403.6,204,391z"/>
</svg>
